<svg xmlns="http://www.w3.org/2000/svg" xmlns:xlink="http://www.w3.org/1999/xlink" version="1.1" x="0px" y="0px" viewBox="0 0 1024 1280" style="enable-background:new 0 0 1024 1024;" xml:space="preserve"><g><g><g><path d="M824.4,717.7c0,22.9,0,45.7,0,68.6c0,36,0,72.1,0,108.1c0,9.2,0.7,18.7-0.3,27.9c0.5-4,1.1-8,1.6-12     c-0.6,4-1.6,7.8-3,11.5c1.5-3.6,3-7.2,4.5-10.7c-1.6,3.6-3.5,6.9-5.8,10.1c2.3-3,4.7-6.1,7-9.1c-2.4,3.1-5.1,5.8-8.2,8.2     c3-2.3,6.1-4.7,9.1-7c-3.1,2.4-6.5,4.3-10.1,5.8c3.6-1.5,7.2-3,10.7-4.5c-3.7,1.5-7.6,2.5-11.5,3c4-0.5,8-1.1,12-1.6     c-7,0.8-14.3,0.3-21.3,0.3c-15,0-30,0-45,0c-50.1,0-100.3,0-150.4,0c-60.5,0-121,0-181.4,0c-52.4,0-104.8,0-157.2,0     c-24.8,0-49.6,0.1-74.4,0c-2.1,0-4.2-0.1-6.2-0.3c4,0.5,8,1.1,12,1.6c-4-0.6-7.8-1.6-11.5-3c3.6,1.5,7.2,3,10.7,4.5     c-3.6-1.6-6.9-3.5-10.1-5.8c3,2.3,6.1,4.7,9.1,7c-3.1-2.4-5.8-5.1-8.2-8.2c2.3,3,4.7,6.1,7,9.1c-2.4-3.1-4.3-6.5-5.8-10.1     c1.5,3.6,3,7.2,4.5,10.7c-1.5-3.7-2.5-7.6-3-11.5c0.5,4,1.1,8,1.6,12c-0.8-7.6-0.3-15.6-0.3-23.2c0-15.7,0-31.4,0-47.1     c0-36.4,0-72.8,0-109.3c0-8.4,0-16.8,0-25.2c-25.6,10.6-51.2,21.2-76.8,31.8c18.7,15.1,38.4,26.7,61.8,33.3     c21.7,6.1,44.3,7.3,66.5,4.3c39.9-5.4,78.5-25.1,104-56.8c-21.2,0-42.4,0-63.6,0c11.1,13.8,25.2,25.5,40.2,34.7     c14.9,9.2,32.1,16.3,49.4,19.9c39.9,8.2,80.9,2.9,116.7-16.9c17.1-9.4,33.2-22.5,45.4-37.7c-21.2,0-42.4,0-63.6,0     c11.1,13.8,25.2,25.5,40.2,34.7c14.9,9.2,32.2,16.3,49.4,19.9c39.9,8.2,80.9,2.9,116.7-16.8c17.1-9.4,33.2-22.5,45.4-37.7     c-21.2,0-42.4,0-63.6,0c52.8,65.8,157.1,77.8,223.8,26.4c5.2-2.8,9.5-6.7,12.6-11.6c4-4.3,6.7-9.4,8.1-15.3     c3-10.8,1.6-25.1-4.5-34.7c-6.2-9.6-15.4-18.1-26.9-20.7c-10.9-2.5-25.3-2.7-34.7,4.5c-8.9,6.9-18.5,12.5-28.8,16.9     c3.6-1.5,7.2-3,10.7-4.5c-9.5,3.9-19.4,6.6-29.6,8.1c4-0.5,8-1.1,12-1.6c-10.8,1.4-21.7,1.5-32.5,0.1c4,0.5,8,1.1,12,1.6     c-10.7-1.5-21.1-4.3-31.1-8.5c3.6,1.5,7.2,3,10.7,4.5c-9.3-4-17.9-9-26-15.1c3,2.3,6.1,4.7,9.1,7c-7.9-6.1-15-13.1-21.3-20.9     c-6.5-8.1-21.8-13.6-31.8-13.2c-11.2,0.5-24.5,4.1-31.8,13.2c-6.3,7.8-13.3,14.7-21.3,20.9c3-2.3,6.1-4.7,9.1-7     c-8,6.1-16.7,11.1-25.9,15.1c3.6-1.5,7.2-3,10.7-4.5c-10,4.2-20.3,7-31.1,8.5c4-0.5,8-1.1,12-1.6c-10.5,1.3-21.1,1.3-31.7,0     c4,0.5,8,1.1,12,1.6c-10.7-1.5-21.1-4.3-31.1-8.5c3.6,1.5,7.2,3,10.7,4.5c-9.2-4-17.9-9-25.9-15.1c3,2.3,6.1,4.7,9.1,7     c-7.9-6.1-15-13.1-21.2-20.9c-6.5-8.1-21.8-13.6-31.8-13.2c-11.2,0.5-24.5,4.1-31.8,13.2c-6.3,7.8-13.3,14.8-21.2,20.9     c3-2.3,6.1-4.7,9.1-7c-8,6.1-16.7,11.1-25.9,15.1c3.6-1.5,7.2-3,10.7-4.5c-10,4.2-20.3,7-31.1,8.5c4-0.5,8-1.1,12-1.6     c-10.5,1.3-21.1,1.3-31.7,0c4,0.5,8,1.1,12,1.6c-10.7-1.5-21.1-4.3-31-8.5c3.6,1.5,7.2,3,10.7,4.5c-9.2-4-17.9-9-25.9-15.1     c3,2.3,6.1,4.7,9.1,7c-7.9-6.1-15-13.1-21.2-20.9c-6.5-8.1-21.8-13.6-31.8-13.2c-11.2,0.5-24.5,4.1-31.8,13.2     c-6.3,7.8-13.3,14.8-21.2,20.9c3-2.3,6.1-4.7,9.1-7c-8,6.1-16.6,11.1-25.9,15.1c3.6-1.5,7.2-3,10.7-4.5c-10,4.2-20.3,7-31,8.5     c4-0.5,8-1.1,12-1.6c-10.8,1.4-21.7,1.3-32.6-0.1c4,0.5,8,1.1,12,1.6c-10.2-1.5-20.2-4.2-29.7-8.1c3.6,1.5,7.2,3,10.7,4.5     c-9.2-3.9-17.8-8.9-25.8-15c3,2.3,6.1,4.7,9.1,7c-0.8-0.6-1.6-1.3-2.4-1.9c-6.1-4.9-12.2-9.5-19.9-11.6     c-9.8-2.7-20.1-1.6-29.3,2.3c-16.3,6.9-27.7,23.1-27.7,41.1c0,37.4,0,74.7,0,112.1c0,22.8,0,45.7,0,68.5c0,23.9,0.4,48,15.4,68.5     c9.1,12.5,20,23.7,34.4,30.2c13.2,5.9,25.1,9.3,39.8,9.5c1.4,0,2.9,0,4.3,0c9,0,17.9,0,26.9,0c36.4,0,72.9,0,109.3,0     c50.8,0,101.6,0,152.4,0c52.4,0,104.7,0,157.1,0c41.1,0,82.3,0,123.4,0c17.2,0,34.3,0.2,51.5,0c15-0.2,27.6-3.8,41-10     c14.2-6.6,25.2-18.1,34-30.7c10.3-14.6,14.5-33.1,14.6-50.8c0-16.1,0-32.1,0-48.2c0-46.6,0-93.1,0-139.7c0-3.1,0-6.2,0-9.3     c0-11.5-5-23.7-13.2-31.8c-7.8-7.8-20.6-13.7-31.8-13.2c-11.6,0.5-23.7,4.3-31.8,13.2C829.5,694.6,824.4,705.5,824.4,717.7z"/></g></g><g><g><path d="M869.1,624c0,5.3-0.4,10.5-1,15.8c0.5-4,1.1-8,1.6-12c-1.5,10.7-4.3,21-8.4,30.9c1.5-3.6,3-7.2,4.5-10.7     c-4.2,9.6-9.5,18.7-15.9,27c2.3-3,4.7-6.1,7-9.1c-6.2,7.8-13.2,14.8-21,21c3-2.3,6.1-4.7,9.1-7c-8.4,6.5-17.5,11.8-27.3,16     c3.6-1.5,7.2-3,10.7-4.5c-9.5,3.9-19.4,6.6-29.6,8.1c4-0.5,8-1.1,12-1.6c-10.8,1.4-21.7,1.5-32.5,0.1c4,0.5,8,1.1,12,1.6     c-10.7-1.5-21.1-4.3-31.1-8.5c3.6,1.5,7.2,3,10.7,4.5c-9.2-4-17.9-9-25.9-15.1c3,2.3,6.1,4.7,9.1,7c-7.9-6.1-15-13.1-21.2-20.9     c-6.5-8.1-21.8-13.6-31.8-13.2c-11.2,0.5-24.5,4.1-31.8,13.2c-6.3,7.8-13.3,14.7-21.3,20.9c3-2.3,6.1-4.7,9.1-7     c-8,6.1-16.7,11.1-25.9,15.1c3.6-1.5,7.2-3,10.7-4.5c-10,4.2-20.3,7-31.1,8.5c4-0.5,8-1.1,12-1.6c-10.5,1.3-21.1,1.3-31.7,0     c4,0.5,8,1.1,12,1.6c-10.7-1.5-21.1-4.3-31.1-8.5c3.6,1.5,7.2,3,10.7,4.5c-9.2-4-17.9-9-25.9-15.1c3,2.3,6.1,4.7,9.1,7     c-7.9-6.1-15-13.1-21.3-20.9c-6.5-8.1-21.8-13.6-31.8-13.2c-11.2,0.5-24.5,4.1-31.8,13.2c-6.3,7.8-13.3,14.8-21.2,20.9     c3-2.3,6.1-4.7,9.1-7c-8,6.1-16.7,11.1-25.9,15.1c3.6-1.5,7.2-3,10.7-4.5c-10,4.2-20.3,7-31.1,8.5c4-0.5,8-1.1,12-1.6     c-10.5,1.3-21.1,1.3-31.7,0c4,0.5,8,1.1,12,1.6c-10.7-1.5-21.1-4.3-31.1-8.5c3.6,1.5,7.2,3,10.7,4.5c-9.2-4-17.9-9-25.9-15.1     c3,2.3,6.1,4.7,9.1,7c-7.9-6.1-15-13.1-21.2-20.9c-6.5-8.1-21.8-13.6-31.8-13.2c-11.2,0.5-24.5,4.1-31.8,13.2     c-6.3,7.8-13.3,14.8-21.2,20.9c3-2.3,6.1-4.7,9.1-7c-8,6.1-16.7,11.1-25.9,15.1c3.6-1.5,7.2-3,10.7-4.5c-10,4.2-20.4,7-31.1,8.5     c4-0.5,8-1.1,12-1.6c-10.8,1.4-21.7,1.3-32.5-0.1c4,0.5,8,1.1,12,1.6c-10.2-1.5-20.1-4.2-29.6-8.1c3.6,1.5,7.2,3,10.7,4.5     c-9.8-4.2-18.9-9.5-27.3-16c3,2.3,6.1,4.7,9.1,7c-7.8-6.2-14.9-13.2-21-21c2.3,3,4.7,6.1,7,9.1c-6.4-8.3-11.7-17.3-15.9-27     c1.5,3.6,3,7.2,4.5,10.7c-4.1-9.9-6.9-20.3-8.4-30.9c0.5,4,1.1,8,1.6,12c-1.3-10.8-1.3-21.6,0.1-32.4c-0.5,4-1.1,8-1.6,12     c1.5-10.3,4.2-20.2,8.2-29.8c-1.5,3.6-3,7.2-4.5,10.7c4.1-9.7,9.5-18.8,15.9-27.2c-2.3,3-4.7,6.1-7,9.1     c6.2-7.9,13.3-15,21.2-21.2c-3,2.3-6.1,4.7-9.1,7c8.4-6.4,17.5-11.8,27.2-15.9c-3.6,1.5-7.2,3-10.7,4.5c9.6-4,19.5-6.7,29.8-8.2     c-4,0.5-8,1.1-12,1.6c10.7-1.4,21.6-1.1,32.4-1.1c14.1,0,28.2,0,42.4,0c45.4,0,90.9,0.1,136.3,0.1c99.3,0.1,198.6,0.2,298,0.2     c17.3,0,34.7,0,52,0c12.1,0,24.4-0.4,36.5,1.1c-4-0.5-8-1.1-12-1.6c10.3,1.5,20.2,4.2,29.8,8.1c-3.6-1.5-7.2-3-10.7-4.5     c9.7,4.1,18.8,9.4,27.2,15.8c-3-2.3-6.1-4.7-9.1-7c7.9,6.2,15,13.3,21.2,21.1c-2.3-3-4.7-6.1-7-9.1c6.4,8.4,11.8,17.4,15.9,27.1     c-1.5-3.6-3-7.2-4.5-10.7c4,9.6,6.7,19.5,8.2,29.7c-0.5-4-1.1-8-1.6-12C868.7,612.9,869.1,618.4,869.1,624     c0.1,11.6,5,23.6,13.2,31.8c7.8,7.8,20.6,13.7,31.8,13.2c11.6-0.5,23.7-4.3,31.8-13.2c8.1-8.8,13.3-19.7,13.2-31.8     c-0.2-27.2-6.9-53.3-19.4-77.4c-11.9-23.1-29.8-41.5-50.4-56.8c-17.7-13.3-39.5-22.8-61.3-26.8c-15.9-2.9-31.4-3.6-47.5-3.6     c-91.8-0.1-183.6-0.1-275.4-0.2c-88.9-0.1-177.8-0.2-266.6-0.2c-17.5,0-35,1.2-52,5.7c-25.4,6.8-48.1,20-67.7,37.2     c-36.7,32.2-58,84.4-53.5,133.1c2.6,28.6,10.7,56.8,27.4,80.5c16.4,23.3,37.6,43.8,63.6,56c27.5,12.9,58,20.1,88.5,16.4     c14.7-1.7,28.7-4.1,42.4-9.6c13.6-5.5,26.3-11.4,38.1-20.2c11.2-8.4,21.6-17,30.4-27.9c-21.2,0-42.4,0-63.6,0     c11.1,13.8,25.2,25.5,40.2,34.7c14.9,9.2,32.2,16.3,49.4,19.9c39.9,8.2,80.9,2.9,116.7-16.9c17.1-9.4,33.2-22.5,45.4-37.7     c-21.2,0-42.4,0-63.6,0c11.1,13.8,25.2,25.5,40.2,34.7c15,9.2,32.2,16.3,49.4,19.9c39.9,8.2,80.9,2.9,116.7-16.8     c17.1-9.4,33.2-22.5,45.4-37.7c-21.2,0-42.4,0-63.6,0c31.2,38.8,83.8,61.6,133.4,58.5c27.8-1.7,55.3-9.4,79.1-24.3     c22.5-14.2,41.6-33.4,55.3-56.2c15.1-25.2,22.8-54.8,23-84.1c0.1-11.5-5.1-23.7-13.2-31.8c-7.8-7.8-20.6-13.7-31.8-13.2     C889.6,580.1,869.3,598.8,869.1,624z"/></g></g><g><g><path d="M533.4,367.3c0,40,0,80.1,0,120.1c0,5.6,0,11.2,0,16.7c15-15,30-30,45-45c-44,0-88-0.1-132-0.1     c15,15,30,30,45,45c0-40.2,0-80.4,0-120.7c0-6.2-0.4-12.6,0.2-18.8c-0.5,4-1.1,8-1.6,12c0.3-1.8,0.7-3.5,1.3-5.2     c-1.5,3.6-3,7.2-4.5,10.7c0.9-2.1,1.9-3.9,3.2-5.7c-2.3,3-4.7,6.1-7,9.1c1.1-1.3,2.3-2.5,3.7-3.7c-3,2.3-6.1,4.7-9.1,7     c1.8-1.3,3.6-2.4,5.7-3.2c-3.6,1.5-7.2,3-10.7,4.5c1.7-0.6,3.4-1,5.2-1.3c-4,0.5-8,1.1-12,1.6c10.5-1,21.5-0.2,32-0.2     c16.2,0,32.4,0,48.5,0c4.3,0,8.7-0.2,13,0.2c-4-0.5-8-1.1-12-1.6c1.8,0.3,3.5,0.7,5.2,1.3c-3.6-1.5-7.2-3-10.7-4.5     c2.1,0.9,3.9,1.9,5.7,3.2c-3-2.3-6.1-4.7-9.1-7c1.3,1.1,2.5,2.3,3.7,3.7c-2.3-3-4.7-6.1-7-9.1c1.3,1.8,2.4,3.6,3.2,5.7     c-1.5-3.6-3-7.2-4.5-10.7c0.6,1.7,1,3.4,1.3,5.2c-0.5-4-1.1-8-1.6-12C533.3,365.4,533.4,366.3,533.4,367.3     c0.4,11.8,4.8,23.4,13.2,31.8c7.8,7.8,20.6,13.7,31.8,13.2c11.6-0.5,23.7-4.3,31.8-13.2c7.9-8.6,13.6-19.8,13.2-31.8     c-0.7-23.5-11.9-44.1-31.7-56.9c-10.6-6.9-23.6-10-36.1-10.1c-8.2-0.1-16.5,0-24.7,0c-20.6,0-41.2-0.2-61.8,0     c-37.4,0.4-66.7,29.7-67.7,67c-0.1,4.3,0,8.6,0,12.8c0,23.4,0,46.9,0,70.3c0,17.8,0,35.7,0,53.5c0,24.3,20.6,45,45,45     c44,0,88,0.1,132,0.1c24.3,0,45-20.6,45-45c0-40,0-80.1,0-120.1c0-5.6,0-11.2,0-16.7c0-11.5-5-23.7-13.2-31.8     c-7.8-7.8-20.6-13.7-31.8-13.2c-11.6,0.5-23.7,4.3-31.8,13.2C538.5,344.3,533.4,355.1,533.4,367.3z"/></g></g><g><g><path d="M533.5,172.4c0,2.8-0.2,5.6-0.5,8.3c0.5-4,1.1-8,1.6-12c-0.8,5.8-2.3,11.5-4.4,16.9     c1.5-3.6,3-7.2,4.5-10.7c-2.2,5.3-5.1,10.2-8.5,14.8c2.3-3,4.7-6.1,7-9.1c-3.8,4.9-8.1,9.2-12.9,12.9c3-2.3,6.1-4.7,9.1-7     c-4.6,3.4-9.5,6.2-14.8,8.5c3.6-1.5,7.2-3,10.7-4.5c-5.5,2.2-11.1,3.7-16.9,4.4c4-0.5,8-1.1,12-1.6c-5.6,0.6-11.1,0.6-16.7,0     c4,0.5,8,1.1,12,1.6c-5.8-0.8-11.5-2.3-16.9-4.4c3.6,1.5,7.2,3,10.7,4.5c-5.3-2.2-10.2-5.1-14.8-8.5c3,2.3,6.1,4.7,9.1,7     c-4.9-3.8-9.2-8.1-12.9-12.9c2.3,3,4.7,6.1,7,9.1c-3.4-4.6-6.2-9.5-8.5-14.8c1.5,3.6,3,7.2,4.5,10.7c-2.2-5.5-3.7-11.1-4.4-16.9     c0.5,4,1.1,8,1.6,12c-0.5-4.3-0.7-8.6-0.2-13c-0.5,4-1.1,8-1.6,12c0.9-6,2.8-11.8,5.1-17.5c-1.5,3.6-3,7.2-4.5,10.7     c8.8-20.7,22.2-39.4,35.8-57.2c-2.3,3-4.7,6.1-7,9.1c8-10.4,16.4-20.6,25.2-30.4c-21.2,0-42.4,0-63.6,0     c8.9,9.7,17.2,20,25.2,30.4c-2.3-3-4.7-6.1-7-9.1c13.6,17.7,27.1,36.4,35.8,57.2c-1.5-3.6-3-7.2-4.5-10.7     c2.3,5.6,4.3,11.4,5.1,17.5c-0.5-4-1.1-8-1.6-12C533.3,169.3,533.4,170.8,533.5,172.4c0.1,11.6,4.9,23.6,13.2,31.8     c7.8,7.8,20.6,13.7,31.8,13.2c11.6-0.5,23.7-4.3,31.8-13.2c8-8.7,13.3-19.7,13.2-31.8c-0.3-27.1-13.7-52.8-28.1-75     c-12.9-19.8-27.6-38.5-42.8-56.5c-2.8-3.4-5.7-6.7-8.7-9.9c-15.8-17.4-47.8-17.4-63.6,0c-8.9,9.7-17.2,20-25.2,30.4     c-18.9,24.4-36,48.7-47.6,77.5c-5,12.5-7.8,26.4-6.6,39.9c1,10.6,2.4,21,6.3,30.9c5.4,13.7,11.3,23.7,20.5,35.2     c12.9,16.2,31.5,27.2,51,33.9c9.7,3.3,20.5,4.7,30.7,5.1c10.8,0.4,22.1-1.1,32.4-3.9c48-13.2,81.3-58,81.8-107.5     c0.1-11.5-5.1-23.7-13.2-31.8c-7.8-7.8-20.6-13.7-31.8-13.2C553.9,128.5,533.7,147.1,533.5,172.4z"/></g></g></g><text x="0" y="1039" fill="#000000" font-size="5px" font-weight="bold" font-family="'Helvetica Neue', Helvetica, Arial-Unicode, Arial, Sans-serif">Created by shashank singh</text><text x="0" y="1044" fill="#000000" font-size="5px" font-weight="bold" font-family="'Helvetica Neue', Helvetica, Arial-Unicode, Arial, Sans-serif">from the Noun Project</text></svg>